# xmcd
#
# Track frame offsets:
#	150
#	12673
#	29280
#	44779
#	57856
#	71836
#	88383
#	101422
#	115161
#	132135
#	145675
#	159275
#	174722
#	190790
#	200860
#	221055
#	232460
#
# Disc length: 3269 seconds
#
# Revision: 0
# Processed by: cddbd v1.5.2PL0 Copyright (c) Steve Scherf et al.
# Submitted via: EZCDAudioConverter 1.1.0.1
#
DISCID=080cc311
DTITLE=Selmi Andak - Bal Gibi Olur
DYEAR=2009
DGENRE=
TTITLE0=Asu Maralman - Bal Gibi Olur
TTITLE1=Nil Burak - Olmaz Olmaz Deme
TTITLE2=Rüçhan Çamay - Gönlüm Çok Zengin
TTITLE3=Ersan Erdura - Son Serüven
TTITLE4=Asu Maralman and Ibo and Sibel Egemen - Toprak ve Ana
TTITLE5=Coşkun Demir - Sevgiye Tutsak
TTITLE6=Neco - Gramafon
TTITLE7=Nükhet Duru and Neco - Bir Sevgi Yeter
TTITLE8=Nükhet Duru - Yaşasam İlk Gülüşünü
TTITLE9=Gönül Turgut - Vazgeçtim Ben Bu Aşktan
TTITLE10=Nilgün Atılgan - Çek Kayıkçı
TTITLE11=Zümrüt - Anma Manya
TTITLE12=Gökhan Abur - Kısmet Değilmiş
TTITLE13=Füsun Önal - Sen Şu İşe Bak
TTITLE14=Erol Evgin - Geli Geliver
TTITLE15=Ayla Algan - Gel Yanıma Yanıma
TTITLE16=Esin Afşar - Gel Dosta Gidelim
EXTD=
EXTT0=
EXTT1=
EXTT2=
EXTT3=
EXTT4=
EXTT5=
EXTT6=
EXTT7=
EXTT8=
EXTT9=
EXTT10=
EXTT11=
EXTT12=
EXTT13=
EXTT14=
EXTT15=
EXTT16=
PLAYORDER=
